PathFileType  4	(X/Y/Z) D:/Data/Berkelmans/SUB01/trc/slow_skatebelt
DataRate	CameraRate	NumFrames	NumMarkers	Units	OrigDataRate	OrigDataStartFrame	OrigNumFrames
100.0	100.0	8	31	m	100.0	201	800
Frame#	Time	LCAL			RCAL			C7			LSHO			RTIB2			RFEM2			LFEM2			RTIB3			RFEM1			LSIPS			RTIB1			LTIB2			RFEM3			RSHO			RKNEE_med			LKNEE_lat			RKNEE_lat			LMTP5			RMTP5			RSIAS			RSIPS			LSIAS			LKNEE_med			LANK_lat			LANK_med			RANK_lat			RANK_med			LTIB3			LTIB1			LFEM3			LFEM1			
		X1	Y1	Z1	X2	Y2	Z2	X3	Y3	Z3	X4	Y4	Z4	X5	Y5	Z5	X6	Y6	Z6	X7	Y7	Z7	X8	Y8	Z8	X9	Y9	Z9	X10	Y10	Z10	X11	Y11	Z11	X12	Y12	Z12	X13	Y13	Z13	X14	Y14	Z14	X15	Y15	Z15	X16	Y16	Z16	X17	Y17	Z17	X18	Y18	Z18	X19	Y19	Z19	X20	Y20	Z20	X21	Y21	Z21	X22	Y22	Z22	X23	Y23	Z23	X24	Y24	Z24	X25	Y25	Z25	X26	Y26	Z26	X27	Y27	Z27	X28	Y28	Z28	X29	Y29	Z29	X30	Y30	Z30	X31	Y31	Z31	

201	-0.9900000	-0.0765235	0.0662634	-0.0502828	-0.1012356	0.1670922	0.0623753	-0.1298248	1.3921178	-0.0522932	-0.0406113	1.4444319	-0.1844078	0.0475046	0.3918447	0.1512754	0.0864985	0.5852742	0.1463457	-0.0277698	0.6071722	-0.1764371	0.0099595	0.4132430	0.1059022	0.0034798	0.6558379	0.1409583	-0.1083638	1.0443098	-0.0897063	0.0588839	0.4587643	0.1406222	-0.0341045	0.3369765	-0.1573608	0.0493677	0.5875367	0.0999086	-0.0494084	1.4004956	0.1825064	0.1995385	0.5404977	0.0476821	0.0342130	0.4846623	-0.1352929	0.1735173	0.5249963	0.1461192	0.0802284	0.0439721	-0.1255224	0.0272938	0.0755898	0.1461761	0.0701802	0.9848565	0.0996021	-0.1186140	1.0322571	0.0233610	0.0866536	0.9876321	-0.1242080	0.0245788	0.5003405	-0.0448525	-0.0205713	0.1014289	-0.1060914	0.0042036	0.1097211	-0.0270026	-0.0321797	0.1742961	0.1214122	-0.0030562	0.1774499	0.0455051	-0.0794505	0.3515543	-0.1285266	-0.0469835	0.4044483	-0.1580712	-0.0811704	0.6195858	-0.1372769	-0.0771077	0.6994743	-0.1803057
202	-0.9800000	-0.0823357	0.0662556	-0.0502028	-0.0843939	0.1574873	0.0649382	-0.1299269	1.3924200	-0.0523687	-0.0431346	1.4457135	-0.1855696	0.0533501	0.3878503	0.1525260	0.0866070	0.5861470	0.1484460	-0.0280692	0.6082437	-0.1783008	0.0147718	0.4078244	0.1075926	0.0037705	0.6567322	0.1427819	-0.1089324	1.0446142	-0.0895349	0.0615021	0.4552873	0.1422237	-0.0395590	0.3368114	-0.1572942	0.0492893	0.5879050	0.1022233	-0.0498503	1.4006870	0.1826320	0.1997692	0.5421469	0.0484194	0.0290146	0.4844282	-0.1354518	0.1743243	0.5262257	0.1465825	0.0749692	0.0439028	-0.1254162	0.0453251	0.0714709	0.1473166	0.0694183	0.9849765	0.0997901	-0.1195674	1.0327898	0.0237321	0.0856902	0.9873717	-0.1241095	0.0193698	0.4999021	-0.0449758	-0.0264411	0.1013398	-0.1059471	-0.0031670	0.1093066	-0.0276526	-0.0174725	0.1674098	0.1225678	0.0117494	0.1715137	0.0468594	-0.0851639	0.3515807	-0.1287084	-0.0524772	0.4045097	-0.1583622	-0.0849203	0.6218773	-0.1360380	-0.0801469	0.7005444	-0.1797308
203	-0.9700000	-0.0881668	0.0663684	-0.0501776	-0.0689019	0.1474351	0.0658609	-0.1300145	1.3926179	-0.0523583	-0.0430632	1.4457926	-0.1853550	0.0592512	0.3834688	0.1542750	0.0870558	0.5866527	0.1505010	-0.0324972	0.6087599	-0.1785942	0.0195481	0.4019416	0.1096629	0.0035097	0.6567718	0.1458874	-0.1097565	1.0449315	-0.0892012	0.0644119	0.4513242	0.1442597	-0.0453950	0.3369977	-0.1574394	0.0484409	0.5876529	0.1053070	-0.0504128	1.4007508	0.1827696	0.1964291	0.5430850	0.0493293	0.0236518	0.4842102	-0.1354774	0.1746174	0.5272239	0.1468990	0.0690640	0.0438875	-0.1254551	0.0644482	0.0674736	0.1492293	0.0684423	0.9850820	0.0998517	-0.1201560	1.0330505	0.0239466	0.0846120	0.9869837	-0.1239344	0.0141867	0.4996241	-0.0450213	-0.0322124	0.1013202	-0.1059216	-0.0081267	0.1090850	-0.0270524	-0.0023854	0.1603805	0.1238872	0.0266404	0.1656162	0.0481379	-0.0908315	0.3518110	-0.1286974	-0.0581514	0.4045435	-0.1584083	-0.0891970	0.6228591	-0.1358123	-0.0832325	0.7017502	-0.1790701
204	-0.9600000	-0.0937631	0.0662730	-0.0499603	-0.0527019	0.1371971	0.0671928	-0.1300858	1.3927704	-0.0522935	-0.0429426	1.4458182	-0.1850934	0.0659918	0.3789262	0.1557441	0.0899004	0.5902100	0.1506131	-0.0366506	0.6092055	-0.1788434	0.0240203	0.3956801	0.1121801	0.0029051	0.6560187	0.1499660	-0.1106201	1.0451638	-0.0886378	0.0669087	0.4467106	0.1463316	-0.0513869	0.3372144	-0.1574254	0.0474818	0.5869985	0.1087757	-0.0508637	1.4008222	0.1830748	0.1954936	0.5438135	0.0499851	0.0180398	0.4840668	-0.1356592	0.1744253	0.5277461	0.1472287	0.0634477	0.0439465	-0.1252859	0.0840788	0.0637874	0.1512925	0.0678733	0.9850030	0.0999726	-0.1209734	1.0334683	0.0245632	0.0837013	0.9864688	-0.1238495	0.0087164	0.4992728	-0.0449697	-0.0379530	0.1013297	-0.1058441	-0.0125386	0.1087375	-0.0278841	0.0130766	0.1533175	0.1252330	0.0419205	0.1597078	0.0494750	-0.0965790	0.3521004	-0.1286552	-0.0639517	0.4046049	-0.1583100	-0.0929859	0.6238594	-0.1359247	-0.0862218	0.7029731	-0.1782918
205	-0.9500000	-0.0994531	0.0662304	-0.0498204	-0.0360737	0.1271652	0.0687180	-0.1301207	1.3928255	-0.0521276	-0.0400723	1.4447426	-0.1834472	0.0719898	0.3739095	0.1572559	0.0860664	0.5877228	0.1528300	-0.0410797	0.6096162	-0.1789820	0.0282299	0.3890641	0.1147748	0.0021501	0.6547537	0.1544072	-0.1111691	1.0453098	-0.0880668	0.0695099	0.4418423	0.1485598	-0.0570529	0.3368902	-0.1572352	0.0433127	0.5854117	0.1139390	-0.0511715	1.4007388	0.1834234	0.1937516	0.5440657	0.0505477	0.0128467	0.4836770	-0.1355912	0.1737091	0.5278694	0.1474672	0.0574740	0.0438808	-0.1253338	0.1038707	0.0605222	0.1531176	0.0673840	0.9847788	0.1001769	-0.1214511	1.0336148	0.0251164	0.0827607	0.9859692	-0.1236881	0.0034095	0.4987968	-0.0449336	-0.0436909	0.1012894	-0.1056997	-0.0195912	0.1091011	-0.0268907	0.0289292	0.1463500	0.1268174	0.0591784	0.1539833	0.0507877	-0.1024543	0.3519988	-0.1284435	-0.0698890	0.4046899	-0.1583283	-0.0969937	0.6246640	-0.1359114	-0.0891394	0.7038675	-0.1778680
206	-0.9400000	-0.1052802	0.0661513	-0.0497463	-0.0178027	0.1174548	0.0699111	-0.1302231	1.3929142	-0.0518969	-0.0400741	1.4446938	-0.1831860	0.0770574	0.3687160	0.1589971	0.0862367	0.5878752	0.1542675	-0.0452326	0.6099833	-0.1790004	0.0351540	0.3827092	0.1156736	0.0012003	0.6534742	0.1584804	-0.1118458	1.0455499	-0.0872082	0.0716084	0.4367937	0.1506224	-0.0629993	0.3371332	-0.1572345	0.0420118	0.5847674	0.1167659	-0.0515841	1.4007225	0.1837678	0.1914800	0.5437409	0.0510321	0.0069356	0.4833551	-0.1357589	0.1726484	0.5276362	0.1476304	0.0517612	0.0438507	-0.1251525	0.1244372	0.0578241	0.1548863	0.0669799	0.9844144	0.1005901	-0.1217867	1.0337702	0.0258908	0.0818519	0.9853495	-0.1234712	-0.0034501	0.4988729	-0.0446242	-0.0495234	0.1013205	-0.1055759	-0.0254731	0.1090350	-0.0267955	0.0460020	0.1399569	0.1282179	0.0748691	0.1485319	0.0521558	-0.1082653	0.3521701	-0.1281704	-0.0757147	0.4048131	-0.1581356	-0.1012638	0.6255055	-0.1359473	-0.0922877	0.7045623	-0.1777012
207	-0.9300000	-0.1111592	0.0664905	-0.0498243	-0.0016479	0.1078217	0.0729106	-0.1303502	1.3930859	-0.0516149	-0.0400980	1.4446923	-0.1829221	0.0826406	0.3639667	0.1603709	0.0864559	0.5876291	0.1564710	-0.0491856	0.6101204	-0.1787948	0.0391820	0.3758109	0.1183520	0.0001882	0.6526278	0.1619092	-0.1120994	1.0458421	-0.0864993	0.0736990	0.4317171	0.1527304	-0.0689995	0.3373102	-0.1570634	0.0406144	0.5842014	0.1192513	-0.0520825	1.4006043	0.1841571	0.1885183	0.5430038	0.0514138	0.0018488	0.4830439	-0.1356578	0.1706757	0.5269873	0.1479550	0.0458731	0.0438530	-0.1251821	0.1449809	0.0559457	0.1561508	0.0669021	0.9840097	0.1009955	-0.1220170	1.0340294	0.0268331	0.0809953	0.9846518	-0.1233337	-0.0076770	0.4980570	-0.0446733	-0.0552121	0.1011982	-0.1054964	-0.0312148	0.1090978	-0.0268552	0.0625563	0.1336971	0.1299154	0.0904103	0.1436027	0.0533868	-0.1140647	0.3524913	-0.1278309	-0.0814342	0.4048675	-0.1579144	-0.1050939	0.6262089	-0.1360147	-0.0956153	0.7052032	-0.1778439
208	-0.9200000	-0.1169130	0.0664090	-0.0497936	0.0166577	0.0987995	0.0771093	-0.1304441	1.3929863	-0.0512834	-0.0428013	1.4457014	-0.1836886	0.0878498	0.3593272	0.1620675	0.0850709	0.5871696	0.1574465	-0.0535200	0.6104608	-0.1784969	0.0432083	0.3688462	0.1209101	-0.0009825	0.6523435	0.1643594	-0.1125951	1.0460717	-0.0853936	0.0753990	0.4264796	0.1544311	-0.0748595	0.3374674	-0.1568676	0.0384196	0.5837113	0.1211201	-0.0528127	1.4005572	0.1847258	0.1852328	0.5420494	0.0515977	-0.0035105	0.4826138	-0.1356752	0.1687626	0.5259235	0.1482251	0.0403040	0.0437394	-0.1250662	0.1658023	0.0549730	0.1570156	0.0670369	0.9834285	0.1014323	-0.1220285	1.0343220	0.0277298	0.0801816	0.9837956	-0.1229798	-0.0121976	0.4973353	-0.0444862	-0.0610237	0.1012675	-0.1054106	-0.0370751	0.1089720	-0.0266164	0.0792380	0.1279002	0.1317862	0.1078044	0.1388487	0.0534228	-0.1197767	0.3527077	-0.1273329	-0.0871544	0.4049457	-0.1577770	-0.1092204	0.6269257	-0.1357504	-0.0989011	0.7057554	-0.1779126
